<svg xmlns="http://www.w3.org/2000/svg" width="410" height="404" viewBox="0 0 410 404"><defs><linearGradient id="a" x1="50%" x2="50%" y1="0%" y2="100%"><stop stop-color="#41D1FF" offset="0%"/><stop stop-color="#BD34FE" offset="100%"/></linearGradient><linearGradient id="b" x1="50%" x2="50%" y1="0%" y2="100%"><stop stop-color="#FFEA83" offset="0%"/><stop stop-color="#FFA800" offset="100%"/></linearGradient></defs><g fill="none"><path fill="#35495E" d="M399.08 59.77L215.4 388.74c-3.2 5.66-11.6 5.66-14.8 0L10.92 59.77c-3.61-6.39 1.02-14.36 7.4-14.36h373.36c6.38 0 11.01 7.97 7.4 14.36z"/><path fill="url(#a)" d="M215.4 388.74c-3.2 5.66-11.6 5.66-14.8 0L10.92 59.77c-3.61-6.39 1.02-14.36 7.4-14.36h186.88v343.33z"/><path fill="url(#b)" d="M215.4 388.74V45.41h186.88c6.38 0 11.01 7.97 7.4 14.36L215.4 388.74z"/></g></svg>

